<svg width="20" height="21" viewBox="0 0 20 21" fill="none" xmlns="http://www.w3.org/2000/svg">
<path d="M8.08916 16.4342C8.01195 16.5118 7.92015 16.5734 7.81904 16.6155C7.71793 16.6575 7.6095 16.6792 7.49999 16.6792C7.39049 16.6792 7.28206 16.6575 7.18095 16.6155C7.07984 16.5734 6.98804 16.5118 6.91083 16.4342L2.20583 11.7283C1.97149 11.4939 1.83984 11.176 1.83984 10.8446C1.83984 10.5131 1.97149 10.1952 2.20583 9.96083L2.79499 9.37166C3.0294 9.13732 3.34729 9.00568 3.67874 9.00568C4.0102 9.00568 4.32808 9.13732 4.56249 9.37166L7.49999 12.3092L15.4375 4.37166C15.6719 4.13732 15.9898 4.00568 16.3212 4.00568C16.6527 4.00568 16.9706 4.13732 17.205 4.37166L17.7942 4.96083C18.0285 5.19524 18.1601 5.51312 18.1601 5.84458C18.1601 6.17603 18.0285 6.49392 17.7942 6.72833L8.08916 16.4342Z" fill="#2F806A"/>
</svg>
